<svg xmlns="http://www.w3.org/2000/svg" xmlns:xlink="http://www.w3.org/1999/xlink" width="40" zoomAndPan="magnify" viewBox="0 0 30 30.000001" height="40" preserveAspectRatio="xMidYMid meet" version="1.2"><defs><clipPath id="8dcc3cab0f"><path d="M 0.484375 0 L 29.515625 0 L 29.515625 29.03125 L 0.484375 29.03125 Z M 0.484375 0 "/></clipPath></defs><g id="a5fd70d4d7"><path style=" stroke:none;fill-rule:nonzero;fill:#000000;fill-opacity:1;" d="M 19.285156 13.617188 C 19.285156 13.957031 19.25 14.296875 19.183594 14.628906 C 19.117188 14.960938 19.019531 15.285156 18.890625 15.601562 C 18.761719 15.914062 18.601562 16.214844 18.410156 16.496094 C 18.222656 16.78125 18.007812 17.042969 17.765625 17.28125 C 17.527344 17.523438 17.265625 17.738281 16.980469 17.925781 C 16.699219 18.117188 16.398438 18.277344 16.085938 18.40625 C 15.769531 18.535156 15.445312 18.636719 15.113281 18.703125 C 14.777344 18.765625 14.441406 18.800781 14.101562 18.800781 C 13.761719 18.800781 13.425781 18.765625 13.089844 18.703125 C 12.757812 18.636719 12.433594 18.535156 12.117188 18.40625 C 11.804688 18.277344 11.503906 18.117188 11.222656 17.925781 C 10.9375 17.738281 10.675781 17.523438 10.4375 17.28125 C 10.195312 17.042969 9.980469 16.78125 9.792969 16.496094 C 9.601562 16.214844 9.441406 15.914062 9.3125 15.601562 C 9.183594 15.285156 9.085938 14.960938 9.019531 14.628906 C 8.953125 14.296875 8.917969 13.957031 8.917969 13.617188 C 8.917969 13.277344 8.953125 12.941406 9.019531 12.605469 C 9.085938 12.273438 9.183594 11.949219 9.3125 11.632812 C 9.441406 11.320312 9.601562 11.019531 9.792969 10.738281 C 9.980469 10.457031 10.195312 10.195312 10.4375 9.953125 C 10.675781 9.710938 10.9375 9.496094 11.222656 9.308594 C 11.503906 9.117188 11.804688 8.960938 12.117188 8.828125 C 12.433594 8.699219 12.757812 8.601562 13.089844 8.535156 C 13.425781 8.46875 13.761719 8.433594 14.101562 8.433594 C 14.441406 8.433594 14.777344 8.46875 15.113281 8.535156 C 15.445312 8.601562 15.769531 8.699219 16.085938 8.828125 C 16.398438 8.960938 16.699219 9.117188 16.980469 9.308594 C 17.265625 9.496094 17.527344 9.710938 17.765625 9.953125 C 18.007812 10.195312 18.222656 10.457031 18.410156 10.738281 C 18.601562 11.019531 18.761719 11.320312 18.890625 11.632812 C 19.019531 11.949219 19.117188 12.273438 19.183594 12.605469 C 19.25 12.941406 19.285156 13.277344 19.285156 13.617188 Z M 19.285156 13.617188 "/><g clip-rule="nonzero" clip-path="url(#8dcc3cab0f)"><path style=" stroke:none;fill-rule:nonzero;fill:#000000;fill-opacity:1;" d="M 15 0 C 6.984375 0 0.484375 6.5 0.484375 14.515625 C 0.484375 22.53125 6.984375 29.03125 15 29.03125 C 23.015625 29.03125 29.515625 22.53125 29.515625 14.515625 C 29.515625 6.5 23.015625 0 15 0 Z M 23.441406 22.957031 C 22.902344 23.496094 22.027344 23.496094 21.484375 22.957031 L 18.660156 20.128906 C 17.371094 21.03125 15.804688 21.5625 14.113281 21.566406 C 9.785156 21.570312 6.226562 18.078125 6.15625 13.75 C 6.082031 9.253906 9.738281 5.597656 14.234375 5.671875 C 18.5625 5.742188 22.054688 9.300781 22.050781 13.628906 C 22.046875 15.320312 21.515625 16.886719 20.613281 18.175781 L 23.441406 21.003906 C 23.980469 21.542969 23.980469 22.417969 23.441406 22.957031 Z M 23.441406 22.957031 "/></g></g></svg>