<svg xmlns="http://www.w3.org/2000/svg" xmlns:xlink="http://www.w3.org/1999/xlink" width="40" zoomAndPan="magnify" viewBox="0 0 30 30.000001" height="40" preserveAspectRatio="xMidYMid meet" version="1.2"><g id="143b313a5b"><path style=" stroke:none;fill-rule:nonzero;fill:#07698d;fill-opacity:1;" d="M 24.351562 23.929688 C 29.515625 18.765625 29.515625 10.390625 24.351562 5.226562 C 19.1875 0.0625 10.8125 0.0625 5.648438 5.226562 C 0.667969 10.207031 0.484375 18.152344 5.097656 23.347656 L 5.222656 23.441406 C 4.730469 24.507812 3.875 25.855469 2.5 26.527344 C 2.042969 26.742188 2.164062 27.414062 2.652344 27.503906 C 4.152344 27.75 6.289062 27.472656 8.277344 25.976562 L 8.308594 26.007812 C 13.378906 28.972656 20.011719 28.269531 24.351562 23.929688 Z M 15.550781 6.417969 C 16.742188 6.417969 17.6875 7.394531 17.6875 8.585938 C 17.6875 9.777344 16.710938 10.757812 15.550781 10.757812 C 14.359375 10.757812 13.378906 9.777344 13.378906 8.558594 C 13.410156 7.363281 14.359375 6.417969 15.550781 6.417969 Z M 12.097656 20.324219 C 12.1875 19.558594 12.3125 18.765625 12.464844 18 C 12.675781 16.65625 12.921875 15.3125 13.167969 13.964844 C 13.167969 13.875 13.195312 13.78125 13.195312 13.722656 C 13.195312 13.171875 13.011719 12.957031 12.464844 12.894531 C 12.21875 12.867188 11.972656 12.835938 11.761719 12.773438 C 11.484375 12.683594 11.363281 12.46875 11.394531 12.222656 C 11.425781 11.980469 11.578125 11.828125 11.882812 11.796875 C 12.035156 11.765625 12.21875 11.765625 12.371094 11.765625 C 13.042969 11.765625 13.6875 11.765625 14.359375 11.765625 C 15.0625 11.765625 15.765625 11.765625 16.46875 11.765625 C 16.957031 11.765625 17.261719 12.011719 17.292969 12.5 C 17.292969 12.925781 17.230469 13.355469 17.167969 13.753906 C 16.894531 15.28125 16.621094 16.839844 16.3125 18.367188 C 16.222656 18.886719 16.128906 19.375 16.070312 19.894531 C 16.039062 20.140625 16.070312 20.414062 16.128906 20.628906 C 16.222656 20.964844 16.46875 21.117188 16.773438 21.085938 C 17.046875 21.054688 17.324219 20.964844 17.566406 20.871094 C 17.78125 20.78125 17.964844 20.660156 18.179688 20.566406 C 18.484375 20.445312 18.757812 20.660156 18.667969 20.996094 C 18.605469 21.179688 18.515625 21.363281 18.363281 21.515625 C 17.566406 22.308594 16.648438 22.765625 15.519531 22.796875 C 15 22.796875 14.480469 22.796875 13.960938 22.707031 C 13.042969 22.523438 11.945312 21.453125 12.097656 20.324219 Z M 12.097656 20.324219 "/></g></svg>