<svg xmlns="http://www.w3.org/2000/svg" xmlns:xlink="http://www.w3.org/1999/xlink" width="40" zoomAndPan="magnify" viewBox="0 0 30 30.000001" height="40" preserveAspectRatio="xMidYMid meet" version="1.2"><defs><clipPath id="767b2ee4f6"><path d="M 0.484375 0 L 29.515625 0 L 29.515625 29.03125 L 0.484375 29.03125 Z M 0.484375 0 "/></clipPath><clipPath id="3f0dd097bb"><path d="M 29.515625 14.515625 C 29.515625 22.53125 23.015625 29.03125 15 29.03125 C 6.984375 29.03125 0.484375 22.53125 0.484375 14.515625 C 0.484375 6.5 6.984375 0 15 0 C 23.015625 0 29.515625 6.5 29.515625 14.515625 Z M 29.515625 14.515625 "/></clipPath><clipPath id="2d28ccff0d"><path d="M 29.515625 14.515625 C 29.515625 22.53125 23.015625 29.03125 15 29.03125 C 6.984375 29.03125 0.484375 22.53125 0.484375 14.515625 C 0.484375 6.5 6.984375 0 15 0 C 23.015625 0 29.515625 6.5 29.515625 14.515625 "/></clipPath><clipPath id="d101a9f477"><path d="M 15 -14.515625 L -14.03125 14.515625 L 15 43.546875 L 44.03125 14.515625 Z M 15 -14.515625 "/></clipPath><linearGradient x1="-0.207238" gradientTransform="matrix(20.528907,20.528907,-20.528907,20.528907,4.731749,4.260844)" y1="0" x2="1.206976" gradientUnits="userSpaceOnUse" y2="0" id="e986309ed6"><stop style="stop-color:#00afe5;stop-opacity:1;" offset="0"/><stop style="stop-color:#00afe5;stop-opacity:1;" offset="0.125"/><stop style="stop-color:#00afe5;stop-opacity:1;" offset="0.15625"/><stop style="stop-color:#00aee5;stop-opacity:1;" offset="0.171875"/><stop style="stop-color:#00aee4;stop-opacity:1;" offset="0.1875"/><stop style="stop-color:#00aee4;stop-opacity:1;" offset="0.195313"/><stop style="stop-color:#00ade4;stop-opacity:1;" offset="0.203125"/><stop style="stop-color:#00ade3;stop-opacity:1;" offset="0.21875"/><stop style="stop-color:#00ace3;stop-opacity:1;" offset="0.234375"/><stop style="stop-color:#00ace3;stop-opacity:1;" offset="0.25"/><stop style="stop-color:#00abe2;stop-opacity:1;" offset="0.265625"/><stop style="stop-color:#00abe2;stop-opacity:1;" offset="0.273437"/><stop style="stop-color:#00aae2;stop-opacity:1;" offset="0.28125"/><stop style="stop-color:#00aae1;stop-opacity:1;" offset="0.3125"/><stop style="stop-color:#00a9e1;stop-opacity:1;" offset="0.320312"/><stop style="stop-color:#00a8e1;stop-opacity:1;" offset="0.328125"/><stop style="stop-color:#00a8e0;stop-opacity:1;" offset="0.34375"/><stop style="stop-color:#00a8e0;stop-opacity:1;" offset="0.351562"/><stop style="stop-color:#00a7e0;stop-opacity:1;" offset="0.359375"/><stop style="stop-color:#00a7e0;stop-opacity:1;" offset="0.375"/><stop style="stop-color:#00a7e0;stop-opacity:1;" offset="0.390625"/><stop style="stop-color:#00a6df;stop-opacity:1;" offset="0.398438"/><stop style="stop-color:#00a5df;stop-opacity:1;" offset="0.40625"/><stop style="stop-color:#00a4df;stop-opacity:1;" offset="0.4375"/><stop style="stop-color:#00a4de;stop-opacity:1;" offset="0.453125"/><stop style="stop-color:#00a3de;stop-opacity:1;" offset="0.46875"/><stop style="stop-color:#00a3dd;stop-opacity:1;" offset="0.476562"/><stop style="stop-color:#00a2dd;stop-opacity:1;" offset="0.484375"/><stop style="stop-color:#00a2dd;stop-opacity:1;" offset="0.5"/><stop style="stop-color:#00a1dd;stop-opacity:1;" offset="0.515625"/><stop style="stop-color:#00a1dc;stop-opacity:1;" offset="0.53125"/><stop style="stop-color:#00a0dc;stop-opacity:1;" offset="0.546875"/><stop style="stop-color:#00a0dc;stop-opacity:1;" offset="0.5625"/><stop style="stop-color:#009fdb;stop-opacity:1;" offset="0.578125"/><stop style="stop-color:#009fdb;stop-opacity:1;" offset="0.59375"/><stop style="stop-color:#009eda;stop-opacity:1;" offset="0.609375"/><stop style="stop-color:#009eda;stop-opacity:1;" offset="0.625"/><stop style="stop-color:#009dda;stop-opacity:1;" offset="0.640625"/><stop style="stop-color:#009cd9;stop-opacity:1;" offset="0.65625"/><stop style="stop-color:#009cd9;stop-opacity:1;" offset="0.671875"/><stop style="stop-color:#009bd9;stop-opacity:1;" offset="0.6875"/><stop style="stop-color:#009bd8;stop-opacity:1;" offset="0.695312"/><stop style="stop-color:#009ad8;stop-opacity:1;" offset="0.703125"/><stop style="stop-color:#009ad7;stop-opacity:1;" offset="0.71875"/><stop style="stop-color:#0099d7;stop-opacity:1;" offset="0.734375"/><stop style="stop-color:#0098d7;stop-opacity:1;" offset="0.75"/><stop style="stop-color:#0098d6;stop-opacity:1;" offset="0.765625"/><stop style="stop-color:#0098d6;stop-opacity:1;" offset="0.773437"/><stop style="stop-color:#0097d6;stop-opacity:1;" offset="0.78125"/><stop style="stop-color:#0097d6;stop-opacity:1;" offset="0.789062"/><stop style="stop-color:#0096d6;stop-opacity:1;" offset="0.796875"/><stop style="stop-color:#0096d5;stop-opacity:1;" offset="0.8125"/><stop style="stop-color:#0096d5;stop-opacity:1;" offset="0.820312"/><stop style="stop-color:#0095d5;stop-opacity:1;" offset="0.828125"/><stop style="stop-color:#0095d4;stop-opacity:1;" offset="0.84375"/><stop style="stop-color:#0095d4;stop-opacity:1;" offset="0.859375"/><stop style="stop-color:#0094d4;stop-opacity:1;" offset="0.875"/><stop style="stop-color:#0094d4;stop-opacity:1;" offset="1"/></linearGradient></defs><g id="8a1a68316b"><g clip-rule="nonzero" clip-path="url(#767b2ee4f6)"><g clip-rule="nonzero" clip-path="url(#3f0dd097bb)"><g clip-rule="nonzero" clip-path="url(#2d28ccff0d)"><g clip-rule="nonzero" clip-path="url(#d101a9f477)"><path style=" stroke:none;fill-rule:nonzero;fill:url(#e986309ed6);" d="M 15 -14.515625 L -14.03125 14.515625 L 15 43.546875 L 44.03125 14.515625 Z M 15 -14.515625 "/></g></g></g></g><path style=" stroke:none;fill-rule:nonzero;fill:#ffffff;fill-opacity:1;" d="M 21.257812 8.140625 C 21.203125 8.140625 21.144531 8.148438 21.089844 8.171875 L 6.480469 13.722656 C 6.066406 13.878906 6.078125 14.46875 6.496094 14.609375 L 9.882812 15.753906 L 11.925781 19.839844 C 11.925781 19.84375 11.925781 19.84375 11.929688 19.84375 L 11.933594 19.855469 C 11.972656 19.929688 12.046875 19.976562 12.132812 19.976562 C 12.179688 19.976562 12.230469 19.960938 12.273438 19.925781 L 14.183594 18.304688 L 12.046875 16.683594 L 12.214844 18.8125 L 10.679688 15.632812 L 18.84375 10.726562 L 12.046875 16.683594 L 17.339844 20.695312 C 17.515625 20.832031 17.71875 20.890625 17.917969 20.890625 C 18.335938 20.890625 18.738281 20.617188 18.855469 20.164062 L 21.714844 8.726562 C 21.789062 8.414062 21.546875 8.140625 21.257812 8.140625 "/></g></svg>