<svg xmlns="http://www.w3.org/2000/svg" xmlns:xlink="http://www.w3.org/1999/xlink" width="40" zoomAndPan="magnify" viewBox="0 0 30 30.000001" height="40" preserveAspectRatio="xMidYMid meet" version="1.2"><g id="239e66eeb9"><path style=" stroke:none;fill-rule:evenodd;fill:#1a85f8;fill-opacity:1;" d="M 15 5.089844 C 18.152344 0.109375 17.429688 0.203125 18.605469 5.808594 C 23.425781 2.414062 22.722656 2.222656 21.664062 7.851562 C 27.414062 6.558594 26.839844 6.113281 23.707031 10.910156 C 29.515625 11.917969 29.15625 11.285156 24.425781 14.515625 C 29.40625 17.667969 29.3125 16.945312 23.707031 18.121094 C 27.101562 22.941406 27.292969 22.238281 21.664062 21.179688 C 22.957031 26.929688 23.402344 26.355469 18.605469 23.222656 C 17.597656 29.03125 18.230469 28.671875 15 23.941406 C 11.847656 28.921875 12.570312 28.828125 11.394531 23.222656 C 6.574219 26.617188 7.277344 26.808594 8.335938 21.179688 C 2.585938 22.472656 3.160156 22.917969 6.292969 18.121094 C 0.484375 17.117188 0.84375 17.75 5.574219 14.515625 C 0.59375 11.363281 0.683594 12.085938 6.292969 10.910156 C 2.898438 6.089844 2.703125 6.792969 8.335938 7.851562 C 7.042969 2.101562 6.597656 2.675781 11.394531 5.808594 C 12.402344 0 11.769531 0.363281 15 5.089844 "/><path style=" stroke:none;fill-rule:evenodd;fill:#ffffff;fill-opacity:1;" d="M 13.445312 16.015625 L 19.839844 9.617188 C 20.464844 8.992188 21.480469 8.992188 22.105469 9.617188 C 22.730469 10.246094 22.730469 11.257812 22.105469 11.882812 L 14.578125 19.414062 C 13.953125 20.039062 12.9375 20.039062 12.3125 19.414062 L 7.894531 14.996094 C 7.269531 14.371094 7.269531 13.355469 7.894531 12.730469 C 8.519531 12.105469 9.535156 12.105469 10.160156 12.730469 Z M 13.445312 16.015625 "/></g></svg>